<svg width="110" height="40" viewBox="0 0 110 40" fill="none" xmlns="http://www.w3.org/2000/svg">
<path d="M76.0134 32.85C74.0534 32.85 72.5484 32.395 71.4984 31.485C70.4717 30.5516 69.9584 29.21 69.9584 27.46V10.205L76.2584 7.82495V26.515C76.2584 27.0283 76.3867 27.4133 76.6434 27.67C76.9234 27.9266 77.3201 28.055 77.8334 28.055C78.0201 28.055 78.2417 28.0316 78.4984 27.985C78.7551 27.9383 79.0234 27.8916 79.3034 27.845V32.255C78.7201 32.465 78.1601 32.6166 77.6234 32.71C77.0867 32.8033 76.5501 32.85 76.0134 32.85ZM67.2284 18.325V14.02H79.3384V18.325H67.2284Z" fill="#212333"/>
<path d="M56.248 32.92C54.1714 32.92 52.3747 32.5 50.858 31.66C49.3647 30.82 48.2097 29.665 47.393 28.195C46.5764 26.7017 46.168 25.01 46.168 23.12C46.168 21.1834 46.5764 19.48 47.393 18.01C48.2097 16.54 49.3647 15.385 50.858 14.545C52.3747 13.705 54.1714 13.285 56.248 13.285C58.3247 13.285 60.1097 13.705 61.603 14.545C63.1197 15.385 64.2864 16.54 65.103 18.01C65.9197 19.48 66.328 21.1834 66.328 23.12C66.328 25.0334 65.9197 26.725 65.103 28.195C64.2864 29.665 63.1197 30.82 61.603 31.66C60.1097 32.5 58.3247 32.92 56.248 32.92ZM56.248 28.335C57.018 28.335 57.6597 28.1484 58.173 27.775C58.7097 27.4017 59.118 26.83 59.398 26.06C59.7014 25.2667 59.853 24.2867 59.853 23.12C59.853 21.93 59.7014 20.95 59.398 20.18C59.118 19.3867 58.7097 18.8034 58.173 18.43C57.6597 18.0567 57.018 17.87 56.248 17.87C55.478 17.87 54.8247 18.0567 54.288 18.43C53.7514 18.8034 53.343 19.375 53.063 20.145C52.783 20.915 52.643 21.9067 52.643 23.12C52.643 24.2867 52.783 25.2667 53.063 26.06C53.343 26.83 53.7514 27.4017 54.288 27.775C54.8247 28.1484 55.478 28.335 56.248 28.335Z" fill="#212333"/>
<path d="M34.7344 32.92C32.6577 32.92 30.861 32.5 29.3444 31.66C27.851 30.82 26.696 29.665 25.8794 28.195C25.0627 26.7017 24.6544 25.01 24.6544 23.12C24.6544 21.1834 25.0627 19.48 25.8794 18.01C26.696 16.54 27.851 15.385 29.3444 14.545C30.861 13.705 32.6577 13.285 34.7344 13.285C36.811 13.285 38.596 13.705 40.0894 14.545C41.606 15.385 42.7727 16.54 43.5894 18.01C44.406 19.48 44.8144 21.1834 44.8144 23.12C44.8144 25.0334 44.406 26.725 43.5894 28.195C42.7727 29.665 41.606 30.82 40.0894 31.66C38.596 32.5 36.811 32.92 34.7344 32.92ZM34.7344 28.335C35.5044 28.335 36.146 28.1484 36.6594 27.775C37.196 27.4017 37.6044 26.83 37.8844 26.06C38.1877 25.2667 38.3394 24.2867 38.3394 23.12C38.3394 21.93 38.1877 20.95 37.8844 20.18C37.6044 19.3867 37.196 18.8034 36.6594 18.43C36.146 18.0567 35.5044 17.87 34.7344 17.87C33.9644 17.87 33.311 18.0567 32.7744 18.43C32.2377 18.8034 31.8294 19.375 31.5494 20.145C31.2694 20.915 31.1294 21.9067 31.1294 23.12C31.1294 24.2867 31.2694 25.2667 31.5494 26.06C31.8294 26.83 32.2377 27.4017 32.7744 27.775C33.311 28.1484 33.9644 28.335 34.7344 28.335Z" fill="#212333"/>
<path d="M2.83502 32.5V7.82495H13.44C15.4467 7.82495 17.1617 8.12828 18.585 8.73495C20.0084 9.31828 21.0934 10.1816 21.84 11.325C22.5867 12.4683 22.96 13.8333 22.96 15.42C22.96 16.8666 22.6217 18.1383 21.945 19.235C21.2684 20.3083 20.2884 21.16 19.005 21.79C17.745 22.3966 16.205 22.7 14.385 22.7H13.02V20.355H7.56002V18.64H12.74C14 18.64 14.9334 18.3833 15.54 17.87C16.17 17.3566 16.485 16.6216 16.485 15.665C16.485 14.7083 16.17 13.985 15.54 13.495C14.9334 12.9816 14 12.725 12.74 12.725H8.19002L9.34502 11.85V32.5H2.83502ZM16.275 32.5L6.89502 19.445H14.07L24.22 32.5H16.275Z" fill="#212333"/>
<path d="M98.095 32.92C95.7383 32.92 93.825 32.4884 92.355 31.625C90.9083 30.7617 90.0217 29.56 89.695 28.02L95.645 26.97C95.8083 27.6934 96.135 28.2184 96.625 28.545C97.115 28.8717 97.7333 29.035 98.48 29.035C99.18 29.035 99.7283 28.8834 100.125 28.58C100.545 28.2534 100.755 27.8217 100.755 27.285C100.755 26.8417 100.627 26.4684 100.37 26.165C100.113 25.8384 99.705 25.605 99.145 25.465L95.12 24.45C93.6033 24.0767 92.4367 23.47 91.62 22.63C90.8267 21.7667 90.43 20.6584 90.43 19.305C90.43 18.115 90.7683 17.065 91.445 16.155C92.145 15.245 93.1133 14.545 94.35 14.055C95.61 13.5417 97.08 13.285 98.76 13.285C100.183 13.285 101.455 13.4717 102.575 13.845C103.718 14.195 104.652 14.6967 105.375 15.35C106.122 16.0034 106.6 16.7967 106.81 17.73L101.07 18.92C100.883 18.3134 100.568 17.87 100.125 17.59C99.705 17.31 99.1683 17.17 98.515 17.17C97.885 17.17 97.395 17.2984 97.045 17.555C96.7183 17.8117 96.555 18.185 96.555 18.675C96.555 19.0017 96.6717 19.3167 96.905 19.62C97.1617 19.9 97.605 20.1217 98.235 20.285L102.12 21.23C103.053 21.4634 103.882 21.8134 104.605 22.28C105.328 22.7234 105.888 23.295 106.285 23.995C106.682 24.695 106.88 25.57 106.88 26.62C106.88 27.95 106.53 29.0934 105.83 30.05C105.13 30.9834 104.127 31.695 102.82 32.185C101.513 32.675 99.9383 32.92 98.095 32.92Z" fill="#212333"/>
<path d="M82.5 12.5C82.5 6.97715 86.9772 2.5 92.5 2.5H96.25C96.25 8.02285 91.7728 12.5 86.25 12.5H82.5Z" fill="#26B862"/>
</svg>
