<svg width="108" height="22" viewBox="0 0 108 22" fill="none" xmlns="http://www.w3.org/2000/svg">
<path d="M3.66799 9.52027H11.536C12.5253 9.52027 13.3093 9.29627 13.888 8.84827C14.4667 8.38161 14.756 7.73761 14.756 6.91627C14.756 6.09494 14.4667 5.46027 13.888 5.01227C13.3093 4.54561 12.5253 4.31227 11.536 4.31227H2.91199L5.29199 1.70827V21.2803H-6.16908e-06V0.280272H12.236C13.804 0.280272 15.176 0.560272 16.352 1.12027C17.528 1.68027 18.4427 2.45494 19.096 3.44427C19.7493 4.43361 20.076 5.59094 20.076 6.91627C20.076 8.22294 19.7493 9.37094 19.096 10.3603C18.4427 11.3496 17.528 12.1243 16.352 12.6843C15.176 13.2256 13.804 13.4963 12.236 13.4963H3.66799V9.52027ZM7.05599 11.4523H13.02L20.748 21.2803H14.616L7.05599 11.4523ZM31.682 21.7283C29.666 21.7283 27.902 21.3736 26.39 20.6643C24.878 19.9549 23.702 18.9656 22.862 17.6963C22.022 16.4269 21.602 14.9616 21.602 13.3003C21.602 11.6203 22.022 10.1549 22.862 8.90427C23.702 7.63494 24.878 6.64561 26.39 5.93627C27.9207 5.22694 29.6847 4.87227 31.682 4.87227C33.698 4.87227 35.462 5.22694 36.974 5.93627C38.486 6.64561 39.662 7.63494 40.502 8.90427C41.3607 10.1549 41.79 11.6203 41.79 13.3003C41.79 14.9803 41.3607 16.4549 40.502 17.7243C39.662 18.9749 38.486 19.9549 36.974 20.6643C35.462 21.3736 33.698 21.7283 31.682 21.7283ZM31.682 17.8083C32.7087 17.8083 33.5767 17.6309 34.286 17.2763C35.014 16.9029 35.5647 16.3803 35.938 15.7083C36.33 15.0363 36.526 14.2336 36.526 13.3003C36.526 12.3669 36.33 11.5643 35.938 10.8923C35.5647 10.2016 35.014 9.67894 34.286 9.32427C33.5767 8.95094 32.7087 8.76427 31.682 8.76427C30.6927 8.76427 29.834 8.95094 29.106 9.32427C28.378 9.67894 27.818 10.2016 27.426 10.8923C27.034 11.5643 26.838 12.3669 26.838 13.3003C26.838 14.2336 27.034 15.0363 27.426 15.7083C27.818 16.3803 28.378 16.9029 29.106 17.2763C29.834 17.6309 30.6927 17.8083 31.682 17.8083ZM53.6664 21.7283C51.6504 21.7283 49.8864 21.3736 48.3744 20.6643C46.8624 19.9549 45.6864 18.9656 44.8464 17.6963C44.0064 16.4269 43.5864 14.9616 43.5864 13.3003C43.5864 11.6203 44.0064 10.1549 44.8464 8.90427C45.6864 7.63494 46.8624 6.64561 48.3744 5.93627C49.905 5.22694 51.669 4.87227 53.6664 4.87227C55.6824 4.87227 57.4464 5.22694 58.9584 5.93627C60.4704 6.64561 61.6464 7.63494 62.4864 8.90427C63.345 10.1549 63.7744 11.6203 63.7744 13.3003C63.7744 14.9803 63.345 16.4549 62.4864 17.7243C61.6464 18.9749 60.4704 19.9549 58.9584 20.6643C57.4464 21.3736 55.6824 21.7283 53.6664 21.7283ZM53.6664 17.8083C54.693 17.8083 55.561 17.6309 56.2704 17.2763C56.9984 16.9029 57.549 16.3803 57.9224 15.7083C58.3144 15.0363 58.5104 14.2336 58.5104 13.3003C58.5104 12.3669 58.3144 11.5643 57.9224 10.8923C57.549 10.2016 56.9984 9.67894 56.2704 9.32427C55.561 8.95094 54.693 8.76427 53.6664 8.76427C52.677 8.76427 51.8184 8.95094 51.0904 9.32427C50.3624 9.67894 49.8024 10.2016 49.4104 10.8923C49.0184 11.5643 48.8224 12.3669 48.8224 13.3003C48.8224 14.2336 49.0184 15.0363 49.4104 15.7083C49.8024 16.3803 50.3624 16.9029 51.0904 17.2763C51.8184 17.6309 52.677 17.8083 53.6664 17.8083ZM64.514 9.18427V6.91627L67.818 5.71227L70.03 1.06427H73.026V5.32027H79.914V9.18427H73.026V14.4483C73.026 15.6429 73.2686 16.4829 73.754 16.9683C74.2393 17.4349 75.1073 17.6683 76.358 17.6683C77.142 17.6683 77.842 17.6029 78.458 17.4723C79.074 17.3229 79.6526 17.1269 80.194 16.8843V20.8323C79.634 21.0563 78.8966 21.2616 77.982 21.4483C77.086 21.6349 76.1526 21.7283 75.182 21.7283C73.4833 21.7283 72.0833 21.4576 70.982 20.9163C69.8993 20.3749 69.0966 19.6189 68.574 18.6483C68.07 17.6589 67.818 16.5016 67.818 15.1763V9.18427H64.514ZM82.3169 9.52027L84.9489 3.89227L85.2569 5.79627C84.7156 5.79627 84.2209 5.66561 83.7729 5.40427C83.3249 5.14294 82.9703 4.79761 82.7089 4.36827C82.4476 3.92027 82.3169 3.42561 82.3169 2.88427C82.3169 2.36161 82.4476 1.88561 82.7089 1.45627C82.9703 1.00827 83.3249 0.653605 83.7729 0.392272C84.2209 0.130939 84.7156 0.000272036 85.2569 0.000272036C85.8169 0.000272036 86.3116 0.130939 86.7409 0.392272C87.1889 0.653605 87.5436 1.00827 87.8049 1.45627C88.0849 1.90427 88.2249 2.40827 88.2249 2.96827C88.2249 3.47227 88.1036 4.02294 87.8609 4.62027C87.6183 5.21761 87.1889 5.97361 86.5729 6.88827L84.8649 9.52027H82.3169ZM107.655 16.1563C107.655 17.3509 107.3 18.3683 106.591 19.2083C105.9 20.0296 104.883 20.6549 103.539 21.0843C102.195 21.5136 100.562 21.7283 98.639 21.7283C96.679 21.7283 94.9616 21.4856 93.487 21.0003C92.0123 20.5149 90.8643 19.8336 90.043 18.9563C89.2216 18.0789 88.783 17.0616 88.727 15.9043H94.019C94.131 16.3709 94.3923 16.7816 94.803 17.1363C95.2323 17.4909 95.783 17.7616 96.455 17.9483C97.127 18.1163 97.9203 18.2003 98.835 18.2003C100.067 18.2003 101 18.0696 101.635 17.8083C102.27 17.5469 102.587 17.1549 102.587 16.6323C102.587 16.2403 102.354 15.9416 101.887 15.7363C101.439 15.5309 100.627 15.3816 99.451 15.2883L96.539 15.0643C94.7096 14.9149 93.2536 14.6256 92.171 14.1963C91.0883 13.7483 90.3136 13.1789 89.847 12.4883C89.399 11.7976 89.175 11.0229 89.175 10.1643C89.175 8.98827 89.539 8.01761 90.267 7.25227C91.0136 6.46827 92.0403 5.88027 93.347 5.48827C94.6536 5.07761 96.1843 4.87227 97.939 4.87227C99.6936 4.87227 101.252 5.10561 102.615 5.57227C103.996 6.03894 105.098 6.68294 105.919 7.50427C106.759 8.32561 107.235 9.28694 107.347 10.3883H102.055C101.98 10.0149 101.775 9.66961 101.439 9.35227C101.122 9.03494 100.655 8.78294 100.039 8.59627C99.4416 8.39094 98.6576 8.28827 97.687 8.28827C96.5856 8.28827 95.7456 8.40961 95.167 8.65227C94.5883 8.89494 94.299 9.24961 94.299 9.71627C94.299 10.0709 94.4763 10.3603 94.831 10.5843C95.1856 10.7896 95.8576 10.9296 96.847 11.0043L100.627 11.2843C102.419 11.4336 103.819 11.7229 104.827 12.1523C105.854 12.5629 106.582 13.1043 107.011 13.7763C107.44 14.4483 107.655 15.2416 107.655 16.1563Z" fill="white"/>
</svg>
