<svg width="64" height="64" viewBox="0 0 64 64" fill="none" xmlns="http://www.w3.org/2000/svg">
<rect width="64" height="64" rx="32" fill="white"/>
<path d="M20 29H26V42H20C19.7348 42 19.4804 41.8946 19.2929 41.7071C19.1054 41.5196 19 41.2652 19 41V30C19 29.7348 19.1054 29.4804 19.2929 29.2929C19.4804 29.1054 19.7348 29 20 29Z" stroke="#212333" stroke-width="2" stroke-linecap="round" stroke-linejoin="round"/>
<path d="M26 29L31 19C32.0609 19 33.0783 19.4214 33.8284 20.1716C34.5786 20.9217 35 21.9391 35 23V26H43C43.2837 26.0001 43.5641 26.0605 43.8227 26.1773C44.0813 26.2941 44.312 26.4645 44.4996 26.6773C44.6872 26.8901 44.8274 27.1404 44.9109 27.4116C44.9944 27.6827 45.0192 27.9685 44.9837 28.25L43.4837 40.25C43.4229 40.7332 43.1878 41.1776 42.8225 41.4998C42.4573 41.822 41.987 41.9999 41.5 42H26" stroke="#212333" stroke-width="2" stroke-linecap="round" stroke-linejoin="round"/>
</svg>
