<svg width="32" height="32" viewBox="0 0 32 32" fill="none" xmlns="http://www.w3.org/2000/svg">
<path d="M16 11C17.1046 11 18 10.1046 18 9C18 7.89543 17.1046 7 16 7C14.8954 7 14 7.89543 14 9C14 10.1046 14.8954 11 16 11Z" stroke="#B6BED2" stroke-width="2" stroke-linecap="round" stroke-linejoin="round"/>
<path d="M18 19C19.1046 19 20 18.1046 20 17C20 15.8954 19.1046 15 18 15C16.8954 15 16 15.8954 16 17C16 18.1046 16.8954 19 18 19Z" stroke="#B6BED2" stroke-width="2" stroke-linecap="round" stroke-linejoin="round"/>
<path d="M14.9999 27H8.99992C8.7347 27 8.48034 26.8946 8.29281 26.7071C8.10527 26.5196 7.99992 26.2652 7.99992 26V21.4763L4.55241 19.8975C4.32462 19.7833 4.149 19.5865 4.06142 19.3472C3.97383 19.1079 3.9809 18.8443 4.08117 18.61L6.99992 13C6.99992 11.2954 7.43563 9.61916 8.2657 8.13036C9.09576 6.64155 10.2926 5.38964 11.7426 4.49349C13.1926 3.59735 14.8476 3.08673 16.5504 3.01011C18.2533 2.93349 19.9474 3.29342 21.472 4.05573C22.9967 4.81803 24.3011 5.95741 25.2615 7.36565C26.2219 8.7739 26.8064 10.4043 26.9595 12.1019C27.1126 13.7996 26.8292 15.5083 26.1362 17.0656C25.4432 18.6229 24.3636 19.9773 22.9999 21L23.9999 29" stroke="#B6BED2" stroke-width="2" stroke-linecap="round" stroke-linejoin="round"/>
<path d="M16 7.00008V3.04883" stroke="#B6BED2" stroke-width="2" stroke-linecap="round" stroke-linejoin="round"/>
<path d="M26.7975 11H23L19.28 15.4637" stroke="#B6BED2" stroke-width="2" stroke-linecap="round" stroke-linejoin="round"/>
</svg>
