<svg width="32" height="32" viewBox="0 0 32 32" fill="none" xmlns="http://www.w3.org/2000/svg">
<path d="M28 26H4V6" stroke="#B6BED2" stroke-width="2" stroke-linecap="round" stroke-linejoin="round"/>
<path d="M16.5 20C17.3284 20 18 19.3284 18 18.5C18 17.6716 17.3284 17 16.5 17C15.6716 17 15 17.6716 15 18.5C15 19.3284 15.6716 20 16.5 20Z" fill="#B6BED2"/>
<path d="M13.5 13C14.3284 13 15 12.3284 15 11.5C15 10.6716 14.3284 10 13.5 10C12.6716 10 12 10.6716 12 11.5C12 12.3284 12.6716 13 13.5 13Z" fill="#B6BED2"/>
<path d="M9.5 22C10.3284 22 11 21.3284 11 20.5C11 19.6716 10.3284 19 9.5 19C8.67157 19 8 19.6716 8 20.5C8 21.3284 8.67157 22 9.5 22Z" fill="#B6BED2"/>
<path d="M21.5 16C22.3284 16 23 15.3284 23 14.5C23 13.6716 22.3284 13 21.5 13C20.6716 13 20 13.6716 20 14.5C20 15.3284 20.6716 16 21.5 16Z" fill="#B6BED2"/>
<path d="M24.5 11C25.3284 11 26 10.3284 26 9.5C26 8.67157 25.3284 8 24.5 8C23.6716 8 23 8.67157 23 9.5C23 10.3284 23.6716 11 24.5 11Z" fill="#B6BED2"/>
<path d="M23.5 22C24.3284 22 25 21.3284 25 20.5C25 19.6716 24.3284 19 23.5 19C22.6716 19 22 19.6716 22 20.5C22 21.3284 22.6716 22 23.5 22Z" fill="#B6BED2"/>
</svg>
