<svg width="64" height="64" viewBox="0 0 64 64" fill="none" xmlns="http://www.w3.org/2000/svg">
<rect width="64" height="64" rx="32" fill="white"/>
<path d="M40 31C41.1645 30.9991 42.3131 31.2698 43.3547 31.7906C44.3963 32.3114 45.302 33.0679 46 34" stroke="#212333" stroke-width="2" stroke-linecap="round" stroke-linejoin="round"/>
<path d="M18 34C18.698 33.0679 19.6037 32.3114 20.6453 31.7906C21.6869 31.2698 22.8355 30.9991 24 31" stroke="#212333" stroke-width="2" stroke-linecap="round" stroke-linejoin="round"/>
<path d="M32 39C34.7614 39 37 36.7614 37 34C37 31.2386 34.7614 29 32 29C29.2386 29 27 31.2386 27 34C27 36.7614 29.2386 39 32 39Z" stroke="#212333" stroke-width="2" stroke-linecap="round" stroke-linejoin="round"/>
<path d="M25 43C25.7179 41.7818 26.7412 40.772 27.9689 40.0705C29.1965 39.369 30.586 39 32 39C33.414 39 34.8035 39.369 36.0311 40.0705C37.2588 40.772 38.2821 41.7818 39 43" stroke="#212333" stroke-width="2" stroke-linecap="round" stroke-linejoin="round"/>
<path d="M36.125 26C36.312 25.2757 36.6984 24.6184 37.2402 24.1026C37.7821 23.5869 38.4577 23.2334 39.1903 23.0824C39.923 22.9313 40.6833 22.9888 41.3849 23.2481C42.0866 23.5075 42.7014 23.9584 43.1596 24.5497C43.6179 25.141 43.9011 25.8489 43.9772 26.5931C44.0533 27.3372 43.9192 28.0878 43.5902 28.7596C43.2611 29.4314 42.7502 29.9974 42.1156 30.3935C41.481 30.7895 40.748 30.9996 40 31" stroke="#212333" stroke-width="2" stroke-linecap="round" stroke-linejoin="round"/>
<path d="M23.9999 31C23.2519 30.9996 22.5189 30.7895 21.8843 30.3935C21.2497 29.9974 20.7388 29.4314 20.4098 28.7596C20.0807 28.0878 19.9466 27.3372 20.0227 26.5931C20.0988 25.8489 20.3821 25.141 20.8403 24.5497C21.2985 23.9584 21.9134 23.5075 22.615 23.2481C23.3167 22.9888 24.077 22.9313 24.8096 23.0824C25.5423 23.2334 26.2179 23.5869 26.7597 24.1026C27.3016 24.6184 27.6879 25.2757 27.8749 26" stroke="#212333" stroke-width="2" stroke-linecap="round" stroke-linejoin="round"/>
</svg>
