<svg width="32" height="32" viewBox="0 0 32 32" fill="none" xmlns="http://www.w3.org/2000/svg">
<path d="M13 13C14.6569 13 16 11.6569 16 10C16 8.34315 14.6569 7 13 7C11.3431 7 10 8.34315 10 10C10 11.6569 11.3431 13 13 13Z" stroke="#B6BED2" stroke-width="2" stroke-linecap="round" stroke-linejoin="round"/>
<path d="M21 25C22.6569 25 24 23.6569 24 22C24 20.3431 22.6569 19 21 19C19.3431 19 18 20.3431 18 22C18 23.6569 19.3431 25 21 25Z" stroke="#B6BED2" stroke-width="2" stroke-linecap="round" stroke-linejoin="round"/>
<path d="M16 10H27" stroke="#B6BED2" stroke-width="2" stroke-linecap="round" stroke-linejoin="round"/>
<path d="M5 10H10" stroke="#B6BED2" stroke-width="2" stroke-linecap="round" stroke-linejoin="round"/>
<path d="M24 22H27" stroke="#B6BED2" stroke-width="2" stroke-linecap="round" stroke-linejoin="round"/>
<path d="M5 22H18" stroke="#B6BED2" stroke-width="2" stroke-linecap="round" stroke-linejoin="round"/>
</svg>
