<svg width="32" height="32" viewBox="0 0 32 32" fill="none" xmlns="http://www.w3.org/2000/svg">
<path d="M25 19L20 24L12 22L5 17" stroke="#B6BED2" stroke-width="2" stroke-linecap="round" stroke-linejoin="round"/>
<path d="M9.08496 8.82875L16 7L22.915 8.82875" stroke="#B6BED2" stroke-width="2" stroke-linecap="round" stroke-linejoin="round"/>
<path d="M4.29634 7.5526L1.10634 13.9351C0.987789 14.1722 0.968197 14.4466 1.05187 14.6981C1.13555 14.9496 1.31565 15.1576 1.55259 15.2764L5.00009 17.0001L9.08509 8.82885L5.63884 7.10635C5.5214 7.04746 5.3935 7.01228 5.26246 7.00283C5.13142 6.99339 4.9998 7.00985 4.87512 7.0513C4.75045 7.09274 4.63516 7.15834 4.53585 7.24436C4.43654 7.33038 4.35515 7.43512 4.29634 7.5526Z" stroke="#B6BED2" stroke-width="2" stroke-linecap="round" stroke-linejoin="round"/>
<path d="M27 17.0001L30.4475 15.2764C30.6845 15.1576 30.8646 14.9496 30.9483 14.6981C31.0319 14.4466 31.0123 14.1722 30.8938 13.9351L27.7038 7.5526C27.645 7.43512 27.5636 7.33038 27.4643 7.24436C27.365 7.15834 27.2497 7.09274 27.125 7.0513C27.0003 7.00985 26.8687 6.99339 26.7377 7.00283C26.6066 7.01228 26.4787 7.04746 26.3613 7.10635L22.915 8.82885L27 17.0001Z" stroke="#B6BED2" stroke-width="2" stroke-linecap="round" stroke-linejoin="round"/>
<path d="M23.0001 9H18.0001L12.2926 14.5363C12.1865 14.6423 12.1056 14.7709 12.0559 14.9124C12.0063 15.054 11.9891 15.2049 12.0056 15.354C12.0222 15.5031 12.0721 15.6465 12.1516 15.7737C12.2312 15.9009 12.3383 16.0086 12.4651 16.0888C14.6538 17.4875 17.6251 17.3912 20.0001 15L25.0001 19L27.0001 17" stroke="#B6BED2" stroke-width="2" stroke-linecap="round" stroke-linejoin="round"/>
<path d="M15.5075 27L10.2925 25.6963L7 23.3438" stroke="#B6BED2" stroke-width="2" stroke-linecap="round" stroke-linejoin="round"/>
</svg>
