<svg width="64" height="64" viewBox="0 0 64 64" fill="none" xmlns="http://www.w3.org/2000/svg">
<rect width="64" height="64" rx="32" fill="#27BD65" fill-opacity="0.08"/>
<path d="M32 44C38.6274 44 44 38.6274 44 32C44 25.3726 38.6274 20 32 20C25.3726 20 20 25.3726 20 32C20 38.6274 25.3726 44 32 44Z" stroke="#212333" stroke-width="2" stroke-linecap="round" stroke-linejoin="round"/>
<path d="M27.5 31C28.3284 31 29 30.3284 29 29.5C29 28.6716 28.3284 28 27.5 28C26.6716 28 26 28.6716 26 29.5C26 30.3284 26.6716 31 27.5 31Z" fill="#212333"/>
<path d="M36.5 31C37.3284 31 38 30.3284 38 29.5C38 28.6716 37.3284 28 36.5 28C35.6716 28 35 28.6716 35 29.5C35 30.3284 35.6716 31 36.5 31Z" fill="#212333"/>
<path d="M37 35C35.9625 36.7938 34.2213 38 32 38C29.7787 38 28.0375 36.7938 27 35" stroke="#212333" stroke-width="2" stroke-linecap="round" stroke-linejoin="round"/>
</svg>
