<svg width="56" height="56" viewBox="0 0 56 56" fill="none" xmlns="http://www.w3.org/2000/svg">
<rect width="56" height="56" rx="28" fill="white"/>
<path d="M21 16.9851V39.0151C21.0033 39.1909 21.0528 39.3627 21.1437 39.5132C21.2345 39.6638 21.3635 39.7877 21.5175 39.8725C21.6715 39.9573 21.8452 40 22.021 39.9963C22.1967 39.9926 22.3684 39.9426 22.5188 39.8513L40.5287 28.8363C40.6726 28.7493 40.7916 28.6266 40.8741 28.4801C40.9567 28.3336 41.0001 28.1683 41.0001 28.0001C41.0001 27.8319 40.9567 27.6666 40.8741 27.5201C40.7916 27.3736 40.6726 27.2509 40.5287 27.1638L22.5188 16.1488C22.3684 16.0576 22.1967 16.0076 22.021 16.0039C21.8452 16.0002 21.6715 16.0429 21.5175 16.1277C21.3635 16.2125 21.2345 16.3364 21.1437 16.4869C21.0528 16.6375 21.0033 16.8093 21 16.9851Z" stroke="#343330" stroke-width="2" stroke-linecap="round" stroke-linejoin="round"/>
</svg>
