<svg width="56" height="56" viewBox="0 0 56 56" fill="none" xmlns="http://www.w3.org/2000/svg">
<rect width="56" height="56" rx="28" fill="#E26999"/>
<path d="M25 25C26.6569 25 28 23.6569 28 22C28 20.3431 26.6569 19 25 19C23.3431 19 22 20.3431 22 22C22 23.6569 23.3431 25 25 25Z" stroke="white" stroke-width="2" stroke-linecap="round" stroke-linejoin="round"/>
<path d="M33 37C34.6569 37 36 35.6569 36 34C36 32.3431 34.6569 31 33 31C31.3431 31 30 32.3431 30 34C30 35.6569 31.3431 37 33 37Z" stroke="white" stroke-width="2" stroke-linecap="round" stroke-linejoin="round"/>
<path d="M28 22H39" stroke="white" stroke-width="2" stroke-linecap="round" stroke-linejoin="round"/>
<path d="M17 22H22" stroke="white" stroke-width="2" stroke-linecap="round" stroke-linejoin="round"/>
<path d="M36 34H39" stroke="white" stroke-width="2" stroke-linecap="round" stroke-linejoin="round"/>
<path d="M17 34H30" stroke="white" stroke-width="2" stroke-linecap="round" stroke-linejoin="round"/>
</svg>
