<svg width="32" height="32" viewBox="0 0 32 32" fill="none" xmlns="http://www.w3.org/2000/svg">
<path d="M16 29V22" stroke="#B6BED2" stroke-width="2" stroke-linecap="round" stroke-linejoin="round"/>
<path d="M6 7C8.65216 7 11.1957 8.05357 13.0711 9.92893C14.9464 11.8043 16 14.3478 16 17V22C13.3478 22 10.8043 20.9464 8.92893 19.0711C7.05357 17.1957 6 14.6522 6 12V7Z" stroke="#B6BED2" stroke-width="2" stroke-linecap="round" stroke-linejoin="round"/>
<path d="M16 22V17C16 14.3478 17.0536 11.8043 18.9289 9.92893C20.8043 8.05357 23.3478 7 26 7L26 12C26 14.6522 24.9464 17.1957 23.0711 19.0711C21.1957 20.9464 18.6522 22 16 22Z" stroke="#B6BED2" stroke-width="2" stroke-linecap="round" stroke-linejoin="round"/>
<path d="M10 26L16 29L22 26" stroke="#B6BED2" stroke-width="2" stroke-linecap="round" stroke-linejoin="round"/>
<path d="M10.8463 8.25C12.5 4.75 16 3 16 3C16 3 19.5 4.75 21.1538 8.25" stroke="#B6BED2" stroke-width="2" stroke-linecap="round" stroke-linejoin="round"/>
</svg>
