<svg width="32" height="32" viewBox="0 0 32 32" fill="none" xmlns="http://www.w3.org/2000/svg">
<path d="M27 13C27 11.1435 26.2625 9.36301 24.9498 8.05025C23.637 6.7375 21.8565 6 20 6C18.1435 6 16.363 6.7375 15.0503 8.05025C13.7375 9.36301 13 11.1435 13 13C13 19.0125 9.79502 23.5 2.71627 25.5875C1.70252 25.8862 1.78752 27.3512 2.82877 27.535C11 28.98 27 27.81 27 13Z" stroke="#B6BED2" stroke-width="2" stroke-linecap="round" stroke-linejoin="round"/>
<path d="M13.1462 11.5725L16 13L20 11L24 13L26.855 11.5725" stroke="#B6BED2" stroke-width="2" stroke-linecap="round" stroke-linejoin="round"/>
<path d="M16 2C17.0609 2 18.0783 2.42143 18.8284 3.17157C19.5786 3.92172 20 4.93913 20 6" stroke="#B6BED2" stroke-width="2" stroke-linecap="round" stroke-linejoin="round"/>
</svg>
