<svg width="32" height="32" viewBox="0 0 32 32" fill="none" xmlns="http://www.w3.org/2000/svg">
<path d="M16 29C21.5228 29 26 24.5228 26 19C26 13.4772 21.5228 9 16 9C10.4772 9 6 13.4772 6 19C6 24.5228 10.4772 29 16 29Z" stroke="#B6BED2" stroke-width="2" stroke-linecap="round" stroke-linejoin="round"/>
<path d="M16 9C16 7.14348 16.7375 5.36301 18.0503 4.05025C19.363 2.7375 21.1435 2 23 2H24C24 3.85652 23.2625 5.63699 21.9497 6.94975C20.637 8.2625 18.8565 9 17 9H16Z" stroke="#B6BED2" stroke-width="2" stroke-linecap="round" stroke-linejoin="round"/>
<path d="M16 9C16 7.14348 15.2625 5.36301 13.9497 4.05025C12.637 2.7375 10.8565 2 9 2H8" stroke="#B6BED2" stroke-width="2" stroke-linecap="round" stroke-linejoin="round"/>
<path d="M22 20C21.7768 21.2443 21.1781 22.3904 20.2842 23.2842C19.3904 24.1781 18.2443 24.7768 17 25" stroke="#B6BED2" stroke-width="2" stroke-linecap="round" stroke-linejoin="round"/>
</svg>
